<svg width="337" height="339" viewBox="0 0 337 339" fill="none" xmlns="http://www.w3.org/2000/svg">
<g clip-path="url(#clip0_1_20)">
<path d="M295.94 253.91C295.846 253.902 295.757 253.869 295.679 253.816C295.602 253.762 295.54 253.689 295.5 253.604C295.46 253.519 295.442 253.426 295.449 253.332C295.456 253.238 295.487 253.148 295.54 253.07C298.893 248.023 301.98 242.623 304.8 236.87C324.38 196.91 327.113 156.12 313 114.5C304.047 88.08 288.527 65.4333 266.44 46.56C247.287 30.1933 225.003 19.3467 199.59 14.02C193.063 12.6467 186.467 11.7367 179.8 11.29C146.953 9.06999 116.513 16.7267 88.48 34.26C87.5933 34.8133 87.1733 34.5667 87.22 33.52C87.4067 29.9067 87.22 26.3 86.66 22.7C86.6138 22.3927 86.6629 22.079 86.8007 21.8016C86.9385 21.5242 87.1583 21.2967 87.43 21.15C121.13 3.02332 156.533 -3.34334 193.64 2.04999C200.287 3.01666 206.803 4.39666 213.19 6.18999C238.463 13.2833 260.713 25.49 279.94 42.81C303.56 64.09 320 89.97 329.26 120.45C335.433 140.77 337.69 161.537 336.03 182.75C333.97 209.197 326.193 233.78 312.7 256.5C312.625 256.626 312.512 256.724 312.378 256.779C312.244 256.833 312.097 256.84 311.96 256.8C307.167 255.46 301.827 254.497 295.94 253.91Z" fill="white"/>
<path d="M159.202 312.23L157.5 312C157.488 311.95 157.987 308.052 158 308C158.013 307.948 157.816 307.83 157.852 307.785C157.887 307.74 158 307.5 158 307.5C158.053 307.469 158.439 307.012 158.5 307C158.88 306.927 159.058 307.39 158.972 306.95C198.845 309.104 232.945 297.194 261.272 271.22C286.125 248.434 300.982 220.14 305.842 186.34C306.782 179.774 307.235 173.134 307.202 166.42C307.002 129.7 294.822 97.8403 270.662 70.8403C266.148 65.8003 261.362 61.1703 256.302 56.9503C231.448 36.2369 202.585 25.6403 169.712 25.1603C153.758 24.9269 137.675 27.7469 121.462 33.6203C121.628 32.6203 121.212 32.1536 120.212 32.2203C118.152 32.3669 117.742 31.8569 118.982 30.6903C119.708 30.0036 119.785 29.3136 119.212 28.6203C122.385 27.1803 124.5 26.5 126.5 26C129.5 25 132.512 24.6836 135.392 23.9903C139.178 23.0836 142.075 22.4636 144.082 22.1303C177.255 16.6303 208.262 21.7803 237.102 37.5803C242.962 40.7936 248.555 44.4036 253.882 48.4103C275.435 64.5969 291.358 85.2836 301.652 110.47C307.545 124.904 311.005 140.22 312.032 156.42C313.958 186.767 307.312 214.98 292.092 241.06C278.165 264.927 259.142 283.23 235.022 295.97C211.535 308.377 186.262 313.797 159.202 312.23Z" fill="white"/>
<path d="M119.212 28.6203C119.785 29.3136 119.708 30.0036 118.982 30.6903C117.742 31.8569 118.152 32.3669 120.212 32.2203C121.212 32.1536 121.628 32.6203 121.462 33.6203C86.6282 47.3203 61.0982 70.5536 44.8716 103.32C41.9182 109.287 39.4182 115.46 37.3716 121.84C27.0182 154.134 27.9016 186.22 40.0216 218.1C48.3415 239.967 61.7849 258.767 80.3516 274.5C102.992 293.687 129.198 304.504 158.972 306.95C159.058 307.39 158.88 306.927 158.5 307C158.439 307.012 158.053 307.469 158 307.5C158 307.5 157.887 307.74 157.852 307.785C157.816 307.83 158.013 307.948 158 308C157.987 308.052 157.488 311.95 157.5 312L159.202 312.23C135.135 310.424 113.118 303.17 93.1516 290.47C69.2316 275.257 51.2682 254.94 39.2616 229.52C36.4682 223.614 34.0649 217.404 32.0515 210.89C20.8649 174.67 22.9882 139.364 38.4216 104.97C41.1882 98.8036 44.3382 92.9369 47.8716 87.3703C65.0316 60.3236 88.8116 40.7403 119.212 28.6203Z" fill="white"/>
<path d="M168.091 299.187C150.96 299.067 134.022 295.508 118.242 288.712C102.462 281.915 88.1499 272.015 76.123 259.577C64.0962 247.139 54.5899 232.406 48.1471 216.219C41.7042 200.033 38.451 182.71 38.573 165.239C38.695 147.768 42.1899 130.492 48.8583 114.397C55.5266 98.302 65.2378 83.7031 77.4373 71.4341C89.6368 59.165 104.086 49.466 119.959 42.8909C135.832 36.3157 152.819 32.9932 169.95 33.113C187.081 33.2326 204.019 36.7921 219.799 43.5884C235.579 50.3846 249.891 60.2845 261.918 72.7227C273.945 85.161 283.451 99.894 289.894 116.081C296.337 132.267 299.59 149.59 299.468 167.061C299.346 184.532 295.851 201.808 289.183 217.903C282.514 233.998 272.803 248.597 260.603 260.866C248.404 273.135 233.955 282.834 218.081 289.409C202.208 295.984 185.221 299.307 168.09 299.187H168.091ZM197.81 156.61C197.81 143.747 192.7 131.411 183.605 122.315C174.509 113.22 162.173 108.11 149.31 108.11C136.447 108.11 124.111 113.22 115.015 122.315C105.92 131.411 100.81 143.747 100.81 156.61C100.81 169.473 105.92 181.809 115.015 190.905C124.111 200 136.447 205.11 149.31 205.11C162.173 205.11 174.509 200 183.605 190.905C192.7 181.809 197.81 169.473 197.81 156.61ZM212.09 210.28C218.757 200.467 223.33 194.06 225.81 191.06C229.763 186.287 231.263 181.087 230.31 175.46C229.777 172.32 228.52 169.817 226.54 167.95C224.32 165.863 221.557 164.713 218.25 164.5C207.99 163.84 202.037 168.487 200.39 178.44C200.378 178.513 200.38 178.587 200.395 178.658C200.411 178.729 200.44 178.795 200.48 178.851C200.519 178.907 200.57 178.952 200.627 178.983C200.684 179.014 200.746 179.03 200.81 179.03L206.95 179.12C207.236 179.122 207.521 179.022 207.763 178.833C208.005 178.645 208.193 178.378 208.3 178.07C209.813 173.75 212.463 171.677 216.25 171.85C218.19 171.943 219.743 172.517 220.91 173.57C222.29 174.83 222.873 176.58 222.66 178.82C222.407 181.373 221.75 183.413 220.69 184.94C217.53 189.453 211.513 197.577 202.64 209.31C201.64 210.637 201.08 211.947 200.96 213.24C200.827 214.727 200.91 216.213 201.21 217.7C201.238 217.839 201.313 217.963 201.422 218.052C201.532 218.142 201.669 218.19 201.81 218.19L230.28 218.25C230.437 218.25 230.589 218.197 230.701 218.102C230.813 218.006 230.877 217.876 230.88 217.74L231 211.78C231.004 211.574 230.905 211.374 230.725 211.224C230.545 211.074 230.299 210.986 230.04 210.98L212.31 210.72C211.97 210.713 211.897 210.567 212.09 210.28Z" fill="white"/>
<path d="M44.32 68.84C46.02 68.9467 47.62 69.0167 49.12 69.05C49.54 69.0633 49.6233 69.2367 49.37 69.57C29.77 95.55 18.8667 124.36 16.66 156C16.1933 162.66 16.1833 169.32 16.63 175.98C18.4167 202.693 26.3767 227.327 40.51 249.88C44.0633 255.547 47.97 260.943 52.23 266.07C70.1033 287.583 92.2133 303.123 118.56 312.69C137.04 319.397 156.517 322.17 176.99 321.01C203.05 319.53 227.08 312.013 249.08 298.46C249.162 298.408 249.256 298.376 249.353 298.369C249.451 298.361 249.548 298.377 249.638 298.415C249.727 298.454 249.806 298.513 249.868 298.589C249.929 298.665 249.971 298.754 249.99 298.85C251.07 304.123 253.023 309.03 255.85 313.57C255.896 313.643 255.926 313.724 255.939 313.81C255.952 313.895 255.948 313.983 255.926 314.067C255.905 314.152 255.867 314.232 255.814 314.303C255.762 314.374 255.696 314.434 255.62 314.48C228.893 330.453 200.27 338.6 169.75 338.92C163.143 338.993 156.49 338.637 149.79 337.85C116.083 333.89 86.3333 321.05 60.54 299.33C55.4133 295.017 50.5867 290.427 46.06 285.56C28.1333 266.273 15.3433 244.023 7.69 218.81C0.703333 195.797 -1.20667 172.053 1.96 147.58C5.76666 118.14 16.5133 91.58 34.2 67.9C34.2898 67.7803 34.4117 67.6886 34.5515 67.6355C34.6914 67.5824 34.8434 67.5701 34.99 67.6C38.07 68.22 41.18 68.6333 44.32 68.84Z" fill="white"/>
<path d="M149.3 195.19C170.618 195.19 187.9 177.908 187.9 156.59C187.9 135.272 170.618 117.99 149.3 117.99C127.982 117.99 110.7 135.272 110.7 156.59C110.7 177.908 127.982 195.19 149.3 195.19Z" fill="white"/>
<path d="M197.81 156.61C197.81 169.473 192.7 181.809 183.605 190.905C174.509 200 162.173 205.11 149.31 205.11C136.447 205.11 124.111 200 115.015 190.905C105.92 181.809 100.81 169.473 100.81 156.61C100.81 143.747 105.92 131.411 115.015 122.315C124.111 113.22 136.447 108.11 149.31 108.11C162.173 108.11 174.509 113.22 183.605 122.315C192.7 131.411 197.81 143.747 197.81 156.61ZM187.9 156.59C187.9 146.353 183.833 136.535 176.594 129.296C169.355 122.057 159.537 117.99 149.3 117.99C139.063 117.99 129.245 122.057 122.006 129.296C114.767 136.535 110.7 146.353 110.7 156.59C110.7 166.827 114.767 176.645 122.006 183.884C129.245 191.123 139.063 195.19 149.3 195.19C159.537 195.19 169.355 191.123 176.594 183.884C183.833 176.645 187.9 166.827 187.9 156.59Z" fill="#3A3A3A"/>
<path d="M212.31 210.72L230.04 210.98C230.299 210.986 230.545 211.074 230.725 211.224C230.905 211.374 231.004 211.574 231 211.78L230.88 217.74C230.877 217.876 230.813 218.006 230.701 218.102C230.588 218.197 230.437 218.25 230.28 218.25L201.81 218.19C201.669 218.19 201.532 218.142 201.422 218.052C201.313 217.963 201.238 217.839 201.21 217.7C200.91 216.213 200.827 214.727 200.96 213.24C201.08 211.947 201.64 210.637 202.64 209.31C211.513 197.577 217.53 189.453 220.69 184.94C221.75 183.413 222.407 181.373 222.66 178.82C222.873 176.58 222.29 174.83 220.91 173.57C219.743 172.517 218.19 171.943 216.25 171.85C212.463 171.677 209.813 173.75 208.3 178.07C208.193 178.378 208.005 178.645 207.763 178.833C207.521 179.022 207.236 179.122 206.95 179.12L200.81 179.03C200.746 179.03 200.684 179.014 200.627 178.983C200.57 178.952 200.519 178.907 200.48 178.851C200.44 178.795 200.411 178.729 200.395 178.658C200.38 178.587 200.378 178.513 200.39 178.44C202.037 168.487 207.99 163.84 218.25 164.5C221.557 164.713 224.32 165.863 226.54 167.95C228.52 169.817 229.777 172.32 230.31 175.46C231.263 181.087 229.763 186.287 225.81 191.06C223.33 194.06 218.757 200.467 212.09 210.28C211.897 210.567 211.97 210.713 212.31 210.72Z" fill="#3A3A3A"/>
<path d="M197.81 156.61C197.81 143.747 192.7 131.411 183.605 122.315C174.509 113.22 162.173 108.11 149.31 108.11C136.447 108.11 124.111 113.22 115.015 122.315C105.92 131.411 100.81 143.747 100.81 156.61C100.81 169.473 105.92 181.809 115.015 190.905C124.111 200 136.447 205.11 149.31 205.11C162.173 205.11 174.509 200 183.605 190.905C192.7 181.809 197.81 169.473 197.81 156.61ZM212.09 210.28C218.757 200.467 223.33 194.06 225.81 191.06C229.763 186.287 231.263 181.087 230.31 175.46C229.777 172.32 228.52 169.817 226.54 167.95C224.32 165.863 221.557 164.713 218.25 164.5C207.99 163.84 202.037 168.487 200.39 178.44C200.378 178.513 200.38 178.587 200.395 178.658C200.411 178.729 200.44 178.795 200.48 178.851C200.519 178.907 200.57 178.952 200.627 178.983C200.684 179.014 200.746 179.03 200.81 179.03L206.95 179.12C207.236 179.122 207.521 179.022 207.763 178.833C208.005 178.645 208.193 178.378 208.3 178.07C209.813 173.75 212.463 171.677 216.25 171.85C218.19 171.943 219.743 172.517 220.91 173.57C222.29 174.83 222.873 176.58 222.66 178.82C222.407 181.373 221.75 183.413 220.69 184.94C217.53 189.453 211.513 197.577 202.64 209.31C201.64 210.637 201.08 211.947 200.96 213.24C200.827 214.727 200.91 216.213 201.21 217.7C201.238 217.839 201.313 217.963 201.422 218.052C201.532 218.142 201.669 218.19 201.81 218.19L230.28 218.25C230.437 218.25 230.589 218.197 230.701 218.102C230.813 218.006 230.877 217.876 230.88 217.74L231 211.78C231.004 211.574 230.905 211.374 230.725 211.224C230.545 211.074 230.299 210.986 230.04 210.98L212.31 210.72C211.97 210.713 211.897 210.567 212.09 210.28Z" stroke="white" stroke-width="2"/>
<path d="M187.9 156.59C187.9 146.353 183.833 136.535 176.594 129.296C169.355 122.057 159.537 117.99 149.3 117.99C139.063 117.99 129.245 122.057 122.006 129.296C114.767 136.535 110.7 146.353 110.7 156.59C110.7 166.827 114.767 176.645 122.006 183.884C129.245 191.123 139.063 195.19 149.3 195.19C159.537 195.19 169.355 191.123 176.594 183.884C183.833 176.645 187.9 166.827 187.9 156.59Z" stroke="white" stroke-width="2"/>
</g>
<defs>
<clipPath id="clip0_1_20">
<rect width="337" height="339" fill="white"/>
</clipPath>
</defs>
</svg>
