<svg width="512" height="512" viewBox="0 0 512 512" fill="none" xmlns="http://www.w3.org/2000/svg">
<path d="M382.94 341.91C382.846 341.902 382.757 341.869 382.679 341.816C382.602 341.762 382.54 341.689 382.5 341.604C382.46 341.519 382.442 341.426 382.449 341.332C382.456 341.238 382.487 341.148 382.54 341.07C385.893 336.023 388.98 330.623 391.8 324.87C411.38 284.91 414.113 244.12 400 202.5C391.047 176.08 375.527 153.433 353.44 134.56C334.287 118.193 312.003 107.347 286.59 102.02C280.063 100.647 273.467 99.7367 266.8 99.29C233.953 97.07 203.513 104.727 175.48 122.26C174.593 122.813 174.173 122.567 174.22 121.52C174.407 117.907 174.22 114.3 173.66 110.7C173.614 110.393 173.663 110.079 173.801 109.802C173.939 109.524 174.158 109.297 174.43 109.15C208.13 91.0233 243.533 84.6567 280.64 90.05C287.287 91.0167 293.803 92.3967 300.19 94.19C325.463 101.283 347.713 113.49 366.94 130.81C390.56 152.09 407 177.97 416.26 208.45C422.433 228.77 424.69 249.537 423.03 270.75C420.97 297.197 413.193 321.78 399.7 344.5C399.625 344.626 399.512 344.724 399.378 344.779C399.244 344.833 399.097 344.84 398.96 344.8C394.167 343.46 388.827 342.497 382.94 341.91Z" fill="white"/>
<path d="M246.202 400.23L244.5 400C244.488 399.95 244.987 396.052 245 396C245.013 395.948 244.816 395.83 244.852 395.785C244.887 395.74 245 395.5 245 395.5C245.053 395.469 245.439 395.012 245.5 395C245.88 394.927 246.058 395.39 245.972 394.95C285.845 397.104 319.945 385.194 348.272 359.22C373.125 336.434 387.982 308.14 392.842 274.34C393.782 267.774 394.235 261.134 394.202 254.42C394.002 217.7 381.822 185.84 357.662 158.84C353.148 153.8 348.362 149.17 343.302 144.95C318.448 124.237 289.585 113.64 256.712 113.16C240.758 112.927 224.675 115.747 208.462 121.62C208.628 120.62 208.212 120.154 207.212 120.22C205.152 120.367 204.742 119.857 205.982 118.69C206.708 118.004 206.785 117.314 206.212 116.62C209.385 115.18 211.5 114.5 213.5 114C216.5 113 219.512 112.684 222.392 111.99C226.178 111.084 229.075 110.464 231.082 110.13C264.255 104.63 295.262 109.78 324.102 125.58C329.962 128.794 335.555 132.404 340.882 136.41C362.435 152.597 378.358 173.284 388.652 198.47C394.545 212.904 398.005 228.22 399.032 244.42C400.958 274.767 394.312 302.98 379.092 329.06C365.165 352.927 346.142 371.23 322.022 383.97C298.535 396.377 273.262 401.797 246.202 400.23Z" fill="white"/>
<path d="M206.212 116.62C206.785 117.314 206.708 118.004 205.982 118.69C204.742 119.857 205.152 120.367 207.212 120.22C208.212 120.154 208.628 120.62 208.462 121.62C173.628 135.32 148.098 158.554 131.872 191.32C128.918 197.287 126.418 203.46 124.372 209.84C114.018 242.134 114.902 274.22 127.022 306.1C135.342 327.967 148.785 346.767 167.352 362.5C189.992 381.687 216.198 392.504 245.972 394.95C246.058 395.39 245.88 394.927 245.5 395C245.439 395.012 245.053 395.469 245 395.5C245 395.5 244.887 395.74 244.852 395.785C244.816 395.83 245.013 395.948 245 396C244.987 396.052 244.488 399.95 244.5 400L246.202 400.23C222.135 398.424 200.118 391.17 180.152 378.47C156.232 363.257 138.268 342.94 126.262 317.52C123.468 311.614 121.065 305.404 119.052 298.89C107.865 262.67 109.988 227.364 125.422 192.97C128.188 186.804 131.338 180.937 134.872 175.37C152.032 148.324 175.812 128.74 206.212 116.62Z" fill="white"/>
<path d="M255.091 387.187C237.96 387.067 221.022 383.508 205.242 376.712C189.462 369.915 175.15 360.015 163.123 347.577C151.096 335.139 141.59 320.406 135.147 304.219C128.704 288.033 125.451 270.71 125.573 253.239C125.695 235.768 129.19 218.492 135.858 202.397C142.527 186.302 152.238 171.703 164.437 159.434C176.637 147.165 191.086 137.466 206.959 130.891C222.832 124.316 239.819 120.993 256.95 121.113C274.081 121.233 291.019 124.792 306.799 131.588C322.579 138.385 336.891 148.284 348.918 160.723C360.945 173.161 370.451 187.894 376.894 204.081C383.337 220.267 386.59 237.59 386.468 255.061C386.346 272.532 382.851 289.808 376.183 305.903C369.514 321.998 359.803 336.597 347.603 348.866C335.404 361.135 320.955 370.834 305.081 377.409C289.208 383.984 272.221 387.307 255.09 387.187H255.091ZM284.81 244.61C284.81 231.747 279.7 219.411 270.605 210.315C261.509 201.22 249.173 196.11 236.31 196.11C223.447 196.11 211.111 201.22 202.015 210.315C192.92 219.411 187.81 231.747 187.81 244.61C187.81 257.473 192.92 269.809 202.015 278.905C211.111 288 223.447 293.11 236.31 293.11C249.173 293.11 261.509 288 270.605 278.905C279.7 269.809 284.81 257.473 284.81 244.61ZM299.09 298.28C305.757 288.467 310.33 282.06 312.81 279.06C316.763 274.287 318.263 269.087 317.31 263.46C316.777 260.32 315.52 257.817 313.54 255.95C311.32 253.863 308.557 252.713 305.25 252.5C294.99 251.84 289.037 256.487 287.39 266.44C287.378 266.513 287.38 266.587 287.395 266.658C287.411 266.729 287.44 266.795 287.48 266.851C287.519 266.907 287.57 266.952 287.627 266.983C287.684 267.014 287.746 267.03 287.81 267.03L293.95 267.12C294.236 267.122 294.521 267.022 294.763 266.833C295.005 266.645 295.193 266.378 295.3 266.07C296.813 261.75 299.463 259.677 303.25 259.85C305.19 259.943 306.743 260.517 307.91 261.57C309.29 262.83 309.873 264.58 309.66 266.82C309.407 269.373 308.75 271.413 307.69 272.94C304.53 277.453 298.513 285.577 289.64 297.31C288.64 298.637 288.08 299.947 287.96 301.24C287.827 302.727 287.91 304.213 288.21 305.7C288.238 305.839 288.313 305.963 288.422 306.052C288.532 306.142 288.669 306.19 288.81 306.19L317.28 306.25C317.437 306.25 317.589 306.197 317.701 306.102C317.813 306.006 317.877 305.876 317.88 305.74L318 299.78C318.004 299.574 317.905 299.374 317.725 299.224C317.545 299.074 317.299 298.986 317.04 298.98L299.31 298.72C298.97 298.713 298.897 298.567 299.09 298.28Z" fill="white"/>
<path d="M131.32 156.84C133.02 156.947 134.62 157.017 136.12 157.05C136.54 157.063 136.623 157.237 136.37 157.57C116.77 183.55 105.867 212.36 103.66 244C103.193 250.66 103.183 257.32 103.63 263.98C105.417 290.693 113.377 315.327 127.51 337.88C131.063 343.547 134.97 348.943 139.23 354.07C157.103 375.583 179.213 391.123 205.56 400.69C224.04 407.397 243.517 410.17 263.99 409.01C290.05 407.53 314.08 400.013 336.08 386.46C336.162 386.408 336.256 386.376 336.353 386.369C336.451 386.361 336.548 386.377 336.638 386.415C336.727 386.454 336.806 386.513 336.868 386.589C336.929 386.665 336.971 386.754 336.99 386.85C338.07 392.123 340.023 397.03 342.85 401.57C342.896 401.643 342.926 401.724 342.939 401.81C342.952 401.895 342.948 401.983 342.926 402.067C342.905 402.152 342.867 402.232 342.814 402.303C342.762 402.374 342.696 402.434 342.62 402.48C315.893 418.453 287.27 426.6 256.75 426.92C250.143 426.993 243.49 426.637 236.79 425.85C203.083 421.89 173.333 409.05 147.54 387.33C142.413 383.017 137.587 378.427 133.06 373.56C115.133 354.273 102.343 332.023 94.69 306.81C87.7033 283.797 85.7933 260.053 88.96 235.58C92.7667 206.14 103.513 179.58 121.2 155.9C121.29 155.78 121.412 155.689 121.552 155.636C121.691 155.582 121.843 155.57 121.99 155.6C125.07 156.22 128.18 156.633 131.32 156.84Z" fill="white"/>
<path d="M236.3 283.19C257.618 283.19 274.9 265.908 274.9 244.59C274.9 223.272 257.618 205.99 236.3 205.99C214.982 205.99 197.7 223.272 197.7 244.59C197.7 265.908 214.982 283.19 236.3 283.19Z" fill="white"/>
<path d="M284.81 244.61C284.81 257.473 279.7 269.809 270.605 278.905C261.509 288 249.173 293.11 236.31 293.11C223.447 293.11 211.111 288 202.015 278.905C192.92 269.809 187.81 257.473 187.81 244.61C187.81 231.747 192.92 219.411 202.015 210.315C211.111 201.22 223.447 196.11 236.31 196.11C249.173 196.11 261.509 201.22 270.605 210.315C279.7 219.411 284.81 231.747 284.81 244.61ZM274.9 244.59C274.9 234.353 270.833 224.535 263.594 217.296C256.355 210.057 246.537 205.99 236.3 205.99C226.063 205.99 216.245 210.057 209.006 217.296C201.767 224.535 197.7 234.353 197.7 244.59C197.7 254.827 201.767 264.645 209.006 271.884C216.245 279.123 226.063 283.19 236.3 283.19C246.537 283.19 256.355 279.123 263.594 271.884C270.833 264.645 274.9 254.827 274.9 244.59Z" fill="#3A3A3A"/>
<path d="M299.31 298.72L317.04 298.98C317.299 298.986 317.545 299.074 317.725 299.224C317.905 299.374 318.004 299.574 318 299.78L317.88 305.74C317.877 305.876 317.813 306.006 317.701 306.102C317.588 306.197 317.437 306.25 317.28 306.25L288.81 306.19C288.669 306.19 288.532 306.142 288.422 306.052C288.313 305.963 288.238 305.839 288.21 305.7C287.91 304.213 287.827 302.727 287.96 301.24C288.08 299.947 288.64 298.637 289.64 297.31C298.513 285.577 304.53 277.453 307.69 272.94C308.75 271.413 309.407 269.373 309.66 266.82C309.873 264.58 309.29 262.83 307.91 261.57C306.743 260.517 305.19 259.943 303.25 259.85C299.463 259.677 296.813 261.75 295.3 266.07C295.193 266.378 295.005 266.645 294.763 266.833C294.521 267.022 294.236 267.122 293.95 267.12L287.81 267.03C287.746 267.03 287.684 267.014 287.627 266.983C287.57 266.952 287.519 266.907 287.48 266.851C287.44 266.795 287.411 266.729 287.395 266.658C287.38 266.587 287.378 266.513 287.39 266.44C289.037 256.487 294.99 251.84 305.25 252.5C308.557 252.713 311.32 253.863 313.54 255.95C315.52 257.817 316.777 260.32 317.31 263.46C318.263 269.087 316.763 274.287 312.81 279.06C310.33 282.06 305.757 288.467 299.09 298.28C298.897 298.567 298.97 298.713 299.31 298.72Z" fill="#3A3A3A"/>
<path d="M284.81 244.61C284.81 231.747 279.7 219.411 270.605 210.315C261.509 201.22 249.173 196.11 236.31 196.11C223.447 196.11 211.111 201.22 202.015 210.315C192.92 219.411 187.81 231.747 187.81 244.61C187.81 257.473 192.92 269.809 202.015 278.905C211.111 288 223.447 293.11 236.31 293.11C249.173 293.11 261.509 288 270.605 278.905C279.7 269.809 284.81 257.473 284.81 244.61ZM299.09 298.28C305.757 288.467 310.33 282.06 312.81 279.06C316.763 274.287 318.263 269.087 317.31 263.46C316.777 260.32 315.52 257.817 313.54 255.95C311.32 253.863 308.557 252.713 305.25 252.5C294.99 251.84 289.037 256.487 287.39 266.44C287.378 266.513 287.38 266.587 287.395 266.658C287.411 266.729 287.44 266.795 287.48 266.851C287.519 266.907 287.57 266.952 287.627 266.983C287.684 267.014 287.746 267.03 287.81 267.03L293.95 267.12C294.236 267.122 294.521 267.022 294.763 266.833C295.005 266.645 295.193 266.378 295.3 266.07C296.813 261.75 299.463 259.677 303.25 259.85C305.19 259.943 306.743 260.517 307.91 261.57C309.29 262.83 309.873 264.58 309.66 266.82C309.407 269.373 308.75 271.413 307.69 272.94C304.53 277.453 298.513 285.577 289.64 297.31C288.64 298.637 288.08 299.947 287.96 301.24C287.827 302.727 287.91 304.213 288.21 305.7C288.238 305.839 288.313 305.963 288.422 306.052C288.532 306.142 288.669 306.19 288.81 306.19L317.28 306.25C317.437 306.25 317.589 306.197 317.701 306.102C317.813 306.006 317.877 305.876 317.88 305.74L318 299.78C318.004 299.574 317.905 299.374 317.725 299.224C317.545 299.074 317.299 298.986 317.04 298.98L299.31 298.72C298.97 298.713 298.897 298.567 299.09 298.28Z" stroke="white" stroke-width="2"/>
<path d="M274.9 244.59C274.9 234.353 270.833 224.535 263.594 217.296C256.355 210.057 246.537 205.99 236.3 205.99C226.063 205.99 216.245 210.057 209.006 217.296C201.767 224.535 197.7 234.353 197.7 244.59C197.7 254.827 201.767 264.645 209.006 271.884C216.245 279.123 226.063 283.19 236.3 283.19C246.537 283.19 256.355 279.123 263.594 271.884C270.833 264.645 274.9 254.827 274.9 244.59Z" stroke="white" stroke-width="2"/>
</svg>
